<svg width="18" height="18" viewBox="0 0 18 18" fill="none" xmlns="http://www.w3.org/2000/svg">
<path d="M12.2296 4.43785C11.9748 4.22398 11.5941 4.25719 11.38 4.51205L5.47481 11.5494L3.42428 9.10587C3.21029 8.85125 2.83012 8.8178 2.57479 9.03167C2.3197 9.24578 2.28637 9.62619 2.50048 9.88128L5.01291 12.8753C5.1275 13.0117 5.29662 13.0906 5.47481 13.0906C5.653 13.0906 5.82212 13.0117 5.93672 12.8753L12.3038 5.28746C12.5179 5.03237 12.4847 4.65196 12.2296 4.43785Z" fill="#6E6E6E"/>
<path d="M16.4132 4.97692C16.1581 4.76304 15.7777 4.79625 15.5636 5.05111L9.65849 12.0887L9.41647 11.8004C9.20272 11.5451 8.82208 11.5116 8.56698 11.726C8.31189 11.9398 8.27856 12.3202 8.49267 12.5753L9.19671 13.4143C9.3113 13.551 9.48042 13.6296 9.65861 13.6296C9.8368 13.6296 10.0059 13.5507 10.1204 13.4143L16.4874 5.82652C16.7015 5.57119 16.6683 5.19103 16.4132 4.97692Z" fill="#6E6E6E"/>
</svg>
